<!-- SVG pour l'icône de l'application -->
<svg xmlns="http://www.w3.org/2000/svg" viewBox="0 0 512 512" width="512" height="512">
  <rect width="512" height="512" fill="#00A86B" rx="64"/>
  <path fill="#fff" d="M256 128c-70.7 0-128 57.3-128 128s57.3 128 128 128 128-57.3 128-128-57.3-128-128-128zm0 216c-48.5 0-88-39.5-88-88s39.5-88 88-88 88 39.5 88 88-39.5 88-88 88z"/>
  <path fill="#fff" d="M304 232h-24v-24c0-13.3-10.7-24-24-24s-24 10.7-24 24v24h-24c-13.3 0-24 10.7-24 24s10.7 24 24 24h24v24c0 13.3 10.7 24 24 24s24-10.7 24-24v-24h24c13.3 0 24-10.7 24-24s-10.7-24-24-24z"/>
</svg>
